<svg width="84" height="26" viewBox="0 0 84 26" fill="none" xmlns="http://www.w3.org/2000/svg">
<path d="M18.84 20.12C17.58 20.12 16.44 19.86 15.42 19.34C14.4 18.8 13.57 17.76 12.93 16.22L12.24 14.54H4.26L1.8 20H0.24L9.09 0.199999H10.44L17.16 16.22C17.92 18.08 18.96 19.08 20.28 19.22V19.97C19.92 20.07 19.44 20.12 18.84 20.12ZM4.89 13.19H11.67L8.37 5.36L4.89 13.19ZM21.3438 4.1C21.3438 3.08 21.2038 2.33 20.9238 1.85C20.6438 1.35 20.0838 1.1 19.2438 1.1H18.9438V0.199999H22.5438C23.2638 0.199999 23.8138 0.319999 24.1938 0.56C24.5738 0.799999 24.8438 1.2 25.0038 1.76C25.1638 2.3 25.2438 3.08 25.2438 4.1V20H21.3438V4.1ZM29.5582 9.8C29.5582 8.78 29.4182 8.03 29.1382 7.55C28.8782 7.05 28.3282 6.8 27.4882 6.8H27.1882V5.9H30.1582C30.8582 5.9 31.3982 6 31.7782 6.2C32.1582 6.38 32.4582 6.7 32.6782 7.16C33.8582 6.12 35.2182 5.6 36.7582 5.6C38.7782 5.6 40.3282 6.29 41.4082 7.67C42.5082 9.03 43.0582 10.79 43.0582 12.95C43.0582 15.11 42.4982 16.88 41.3782 18.26C40.2782 19.62 38.6882 20.3 36.6082 20.3C35.7882 20.3 35.0182 20.15 34.2982 19.85C33.9782 19.73 33.6982 19.58 33.4582 19.4V25.7H29.5582V9.8ZM36.0082 18.95C38.0082 18.95 39.0082 16.95 39.0082 12.95C39.0082 11.11 38.7782 9.65 38.3182 8.57C37.8582 7.49 37.1382 6.95 36.1582 6.95C35.0382 6.95 34.0682 7.36 33.2482 8.18L33.3382 8.6C33.4182 8.84 33.4582 9.18 33.4582 9.62V18.05C33.6782 18.23 33.9182 18.38 34.1782 18.5C34.7382 18.8 35.3482 18.95 36.0082 18.95ZM48.4997 4.28C47.7797 4.28 47.2197 4.06 46.8197 3.62C46.4397 3.18 46.2497 2.64 46.2497 2C46.2497 1.48 46.3997 1.07 46.6997 0.769999C47.0197 0.469999 47.4197 0.319999 47.8997 0.319999C48.6197 0.319999 49.1697 0.54 49.5497 0.98C49.9497 1.42 50.1497 1.96 50.1497 2.6C50.1497 3.12 49.9897 3.53 49.6697 3.83C49.3697 4.13 48.9797 4.28 48.4997 4.28ZM46.5497 9.8C46.5497 8.78 46.4097 8.03 46.1297 7.55C45.8497 7.05 45.2897 6.8 44.4497 6.8H44.1497V5.9H47.7497C48.4697 5.9 49.0197 6.02 49.3997 6.26C49.7797 6.5 50.0497 6.9 50.2097 7.46C50.3697 8 50.4497 8.78 50.4497 9.8V20H46.5497V9.8ZM54.5777 9.8C54.5777 8.78 54.4377 8.03 54.1577 7.55C53.8977 7.05 53.3477 6.8 52.5077 6.8H52.2077V5.9H55.1777C55.8577 5.9 56.3877 5.99 56.7677 6.17C57.1677 6.33 57.4777 6.61 57.6977 7.01C58.7177 6.07 60.1777 5.6 62.0777 5.6C63.9777 5.6 65.3977 6.05 66.3377 6.95C67.2977 7.83 67.7777 9.22 67.7777 11.12V20H63.8777V11.09C63.8777 9.71 63.6177 8.7 63.0977 8.06C62.5977 7.42 61.9077 7.1 61.0277 7.1C60.4077 7.1 59.8577 7.19 59.3777 7.37C58.9177 7.53 58.5477 7.75 58.2677 8.03L58.3577 8.45C58.4377 8.69 58.4777 9.08 58.4777 9.62V20H54.5777V9.8ZM77.4436 20.3C76.0636 20.3 74.8536 19.98 73.8136 19.34C72.7736 18.7 71.9636 17.83 71.3836 16.73C70.8236 15.61 70.5436 14.35 70.5436 12.95C70.5436 11.39 70.8236 10.06 71.3836 8.96C71.9636 7.86 72.7536 7.03 73.7536 6.47C74.7536 5.89 75.8836 5.6 77.1436 5.6C78.3836 5.6 79.5036 5.85 80.5036 6.35C81.5036 6.85 82.2936 7.56 82.8736 8.48C83.4536 9.38 83.7436 10.42 83.7436 11.6C83.7436 11.98 83.7236 12.41 83.6836 12.89L83.6236 13.49H74.5936C74.5936 15.39 74.8836 16.78 75.4636 17.66C76.0436 18.52 76.8536 18.95 77.8936 18.95C78.8536 18.95 79.6536 18.74 80.2936 18.32C80.9536 17.88 81.5836 17.26 82.1836 16.46L83.1136 17.15C82.5336 18.05 81.8036 18.8 80.9236 19.4C80.0636 20 78.9036 20.3 77.4436 20.3ZM79.6936 12.14C79.6936 10.26 79.4736 8.93 79.0336 8.15C78.5936 7.35 77.9636 6.95 77.1436 6.95C76.3836 6.95 75.7636 7.36 75.2836 8.18C74.8236 8.98 74.5936 10.3 74.5936 12.14H79.6936Z" fill="white"/>
</svg>
